<?xml version="1.0" encoding="utf-8"?>
<svg xmlns="http://www.w3.org/2000/svg" xmlns:xlink="http://www.w3.org/1999/xlink" version="1.2" viewBox="0 0 8941 1778" preserveAspectRatio="xMidYMid meet">
  <style>/* <![CDATA[ */
    .line,.symbol{stroke:#1f4e5f;stroke-width:20}.line{stroke-dasharray:80,160}.symbol,.text{fill:#1f4e5f}.symbol{fill-opacity:0.2}.text{font-family:sans-serif;font-weight:light}
  /* ]]> */</style>
  <mask id="server-mask">
    <rect x="0" y="0" width="8941" height="1778" fill="white"/>
    <path d="M 3813,879 L 3778,879 3778,762 3849,762 3849,879 3813,879 Z" fill="black"/>
    <path d="M 3813,575 L 3778,575 3778,458 3849,458 3849,575 3813,575 Z" fill="black"/>
    <path d="M 3813,273 L 3778,273 3778,156 3849,156 3849,273 3813,273 Z" fill="black"/>
  </mask>
  <g>
    <path class="symbol symbol-cloud" d="M 8128,866 C 8128,942 8099,1008 8040,1062 7982,1116 7911,1143 7828,1143 L 6979,1143 C 6882,1143 6800,1111 6732,1048 6663,985 6629,909 6629,820 6629,756 6647,698 6684,645 6721,593 6770,553 6830,527 6829,514 6829,504 6829,496 6829,394 6868,307 6946,235 7024,163 7118,127 7229,127 7311,127 7385,148 7452,191 7519,233 7568,288 7599,356 7635,327 7678,312 7728,312 7783,312 7831,330 7870,366 7909,402 7928,445 7928,496 7928,533 7917,566 7896,596 7963,610 8019,643 8062,693 8106,743 8128,801 8128,866 Z"/>
  </g>
  <g>
    <path class="symbol symbol-router" d="M 1330,847 C 1330,808 1298,776 1259,776 L 271,776 C 232,776 200,808 200,847 L 200,1130 C 200,1169 232,1200 271,1200 L 1259,1200 C 1298,1200 1330,1169 1330,1130 L 1330,847 Z M 906,1059 C 867,1059 836,1027 836,988 836,949 867,917 906,917 945,917 977,949 977,988 977,1027 945,1059 906,1059 Z M 1118,1059 C 1079,1059 1047,1027 1047,988 1047,949 1079,917 1118,917 1157,917 1189,949 1189,988 1189,1027 1157,1059 1118,1059 Z"/>
    <path class="symbol symbol-router" d="M 313,376 C 436,273 593,212 765,212 937,212 1095,273 1217,376 1217,376 1261,415 1309,366 1357,318 1308,267 1308,267 1161,144 972,70 765,70 559,70 370,144 223,267 223,267 177,323 221,367 266,412 313,376 313,376 Z"/>
    <path class="symbol symbol-router" d="M 765,352 C 628,352 502,402 404,483 404,483 342,541 393,592 445,644 494,592 494,592 567,531 662,494 765,494 869,494 963,531 1037,592 1037,592 1089,637 1136,590 1189,537 1127,483 1127,483 1029,402 903,352 765,352 Z"/>
  </g>
  <g mask="url(#server-mask)">
    <path class="symbol symbol-server" d="M 4621,872 C 4621,910 4583,949 4545,949 L 3783,949 C 3745,949 3707,910 3707,872 L 3707,767 C 3707,729 3745,691 3783,691 L 4545,691 C 4583,691 4621,729 4621,767 L 4621,872 Z"/>
    <path class="symbol symbol-server" d="M 4621,569 C 4621,607 4583,645 4545,645 L 3783,645 C 3745,645 3707,607 3707,569 L 3707,465 C 3707,427 3745,390 3783,390 L 4545,390 C 4583,390 4621,427 4621,465 L 4621,569 Z"/>
    <path class="symbol symbol-server" d="M 4621,266 C 4621,304 4583,341 4545,341 L 3783,341 C 3745,341 3707,304 3707,266 L 3707,162 C 3707,124 3745,86 3783,86 L 4545,86 C 4583,86 4621,124 4621,162 L 4621,266 Z"/>
    <path class="symbol symbol-server" d="M 3860,1157 L 3707,1157 3707,1087 4012,1087 4012,1157 3860,1157 Z"/>
    <path class="symbol symbol-server" d="M 4445,1157 L 4293,1157 4293,1087 4596,1087 4596,1157 4445,1157 Z"/>
    <path class="symbol symbol-server" d="M 4224,1041 L 4198,1041 4198,971 4105,971 4105,1041 4079,1041 C 4057,1041 4034,1064 4034,1086 L 4034,1160 C 4034,1182 4057,1204 4079,1204 L 4224,1204 C 4247,1204 4269,1182 4269,1160 L 4269,1086 C 4269,1064 4247,1041 4224,1041 Z"/>
  </g>
  <g>
    <path class="line" d="M 1243,635 L 3656,635"/>
    <path class="line" d="M 4672,635 L 6577,635"/>
  </g>
  <g>
    <text class="text" font-size="282" x="401" y="1650">Client</text>
    <text class="text" font-size="282" x="3029" y="1652">SmartREST proxy</text>
    <text class="text" font-size="282" x="6128" y="1655">Cumulocity Platform</text>
  </g>
</svg>
