<?xml version="1.0" encoding="UTF-8"?>
<svg xmlns="http://www.w3.org/2000/svg" version="1.2" viewBox="0 0 500 200" preserveAspectRatio="xMidYMid meet">
  <style>/* <![CDATA[ */
    .line {
      fill: none;
      stroke: #1f4e5f;
      stroke-width: 1.5;
    }
    .shadow-line {
      fill: none;
      stroke: #1f4e5f;
      stroke-dasharray: 5, 5;
      stroke-width: 1.5;
    }
    .label-point {
      fill: #1f4e5f;
    }
    .label {
      font-family: serif;
      font-style: italic;
    }
  /* ]]> */</style>
  <path d="M30,160 L161.99999999999994,49.23884868459899" class="shadow-line">
  </path>
  <path d="M338,49.23884868459905 L470,160" class="shadow-line">
  </path>
  <path d="M30,160 L470,160" class="shadow-line">
  </path>
  <path d="M30,160 C161.99999999999994,49.23884868459899 338,49.23884868459905 470,160" class="line">
  </path>
  <circle cx="30" cy="160" r="4" class="label-point">
  </circle>
  <text x="18" y="174" font-size="12" dy=".35em" text-anchor="middle" class="label">A</text>
  <circle cx="161.99999999999994" cy="49.23884868459899" r="4" class="label-point">
  </circle>
  <text x="149.99999999999994" y="35.23884868459899" font-size="12" dy=".35em" text-anchor="middle" class="label">B</text>
  <circle cx="338" cy="49.23884868459905" r="4" class="label-point">
  </circle>
  <text x="350" y="35.23884868459905" font-size="12" dy=".35em" text-anchor="middle" class="label">C</text>
  <circle cx="470" cy="160" r="4" class="label-point">
  </circle>
  <text x="482" y="174" font-size="12" dy=".35em" text-anchor="middle" class="label">D</text>
  <path d="M30.64177772475912,-25.71150438746157A40,40 0 0,1 40,0L40,0A40,40 0 0,0 30.64177772475912,-25.71150438746157Z" transform="translate(30,160)" class="shadow-line">
  </path>
  <text x="55.05846988762422" y="150.87946284464883" font-size="12" dy=".35em" text-anchor="middle" class="label">a</text>
  <path d="M-40,4.898587196589413e-15A40,40 0 0,1 -30.641777724759123,-25.71150438746157L-30.641777724759123,-25.71150438746157A40,40 0 0,0 -40,4.898587196589413e-15Z" transform="translate(470,160)" class="shadow-line">
  </path>
  <text x="444.94153011237574" y="150.87946284464886" font-size="12" dy=".35em" text-anchor="middle" class="label">a</text>
  <text x="250" y="148" font-size="12" dy=".35em" text-anchor="middle" class="label">d</text>
  <text x="86.99999999999997" y="95.6194243422995" font-size="12" dy=".35em" text-anchor="middle" class="label">r</text>
  <text x="413" y="95.61942434229952" font-size="12" dy=".35em" text-anchor="middle" class="label">r</text>
</svg>
