<svg width="256" height="256" version="1.1" xmlns="http://www.w3.org/2000/svg"><path d="M7.83773951454306e-15,-128A128,128,0,1,1,-7.83773951454306e-15,128A128,128,0,1,1,7.83773951454306e-15,-128M-2.1161896689266264e-14,-115.2A115.2,115.2,0,1,0,2.1161896689266264e-14,115.2A115.2,115.2,0,1,0,-2.1161896689266264e-14,-115.2Z" transform="translate(128,128)" fill="rgba(121,168,169,0.2)"></path><path d="M7.83773951454306e-15,-128A128,128,0,1,1,-7.83773951454306e-15,128A128,128,0,1,1,7.83773951454306e-15,-128M-2.1161896689266264e-14,-115.2A115.2,115.2,0,1,0,2.1161896689266264e-14,115.2A115.2,115.2,0,1,0,-2.1161896689266264e-14,-115.2Z" transform="translate(128,128)" fill="#79a8a9"></path><text transform="translate(128,128)" font-family="sans-serif" font-size="40" text-anchor="middle" dy=".35em" fill="#79a8a9">HTML</text></svg>