<?xml version="1.0" encoding="iso-8859-1"?>
<svg version="1.1" xmlns="http://www.w3.org/2000/svg" xmlns:xlink="http://www.w3.org/1999/xlink" viewBox="99.135 0 248.333 446.603" preserveAspectRatio="xMidYMid meet">
	<g fill="#00c0ff">
		<path d="M129.438,446.603h187.723c16.706,0,30.306-13.604,30.306-30.311V30.305c0-16.709-13.6-30.305-30.306-30.305H129.438
			c-16.707,0-30.303,13.596-30.303,30.305v385.987C99.136,433.009,112.732,446.603,129.438,446.603z M110.985,30.305
			c0-10.168,8.271-18.456,18.453-18.456h187.723c10.166,0,18.453,8.287,18.453,18.456v385.987c0,10.182-8.287,18.459-18.453,18.459
			H129.438c-10.182,0-18.453-8.277-18.453-18.459V30.305L110.985,30.305z"/>
		<path d="M125.671,394.066h195.258c1.636,0,2.961-1.325,2.961-2.96V52.243c0-1.636-1.325-2.963-2.961-2.963H125.671
			c-1.635,0-2.961,1.328-2.961,2.963v338.863C122.71,392.741,124.036,394.066,125.671,394.066z M136.535,55.206h173.532
			c4.356,0,7.896,3.539,7.896,7.898v317.14c0,4.362-3.539,7.896-7.896,7.896H136.535c-4.362,0-7.901-3.534-7.901-7.896V63.104
			C128.634,58.745,132.166,55.206,136.535,55.206z"/>
		<path d="M206.639,31.237h33.322c1.635,0,2.96-1.328,2.96-2.963c0-1.635-1.325-2.963-2.96-2.963h-33.322
			c-1.635,0-2.963,1.328-2.963,2.963C203.676,29.91,205.004,31.237,206.639,31.237z"/>
		<path d="M240.361,400.84h-34.126c-7.016,0-12.71,5.702-12.71,12.7v2.041c0,7.008,5.703,12.71,12.71,12.71h34.126
			c7.008,0,12.716-5.713,12.716-12.71v-2.041C253.082,406.542,247.369,400.84,240.361,400.84z M247.156,415.582
			c0,3.742-3.057,6.784-6.784,6.784h-34.129c-3.753,0-6.784-3.047-6.784-6.784v-2.041c0-3.737,3.042-6.779,6.784-6.779h34.129
			c3.737,0,6.784,3.052,6.784,6.779V415.582z"/>
		<g transform="translate(169.9682,169.9682) scale(0.2)">
			<path d="M166.667,33.333H33.333v133.333h133.333V33.333z M200,0L200,0v200H0V0H200z M66.667,66.667h66.667v66.667H66.667V66.667z
				 M500,33.333H366.667v133.333H500V33.333z M533.333,0L533.333,0v200h-200V0H533.333z M400,66.667h66.667v66.667H400V66.667z
				 M166.667,366.667H33.333V500h133.333V366.667z M200,333.333L200,333.333v200H0v-200H200z M66.667,400h66.667v66.667H66.667V400z
				 M233.333,0h33.333v33.333h-33.333V0z M266.667,33.333H300v33.333h-33.333V33.333z M233.333,66.667h33.333V100h-33.333V66.667z
				 M266.667,100H300v33.333h-33.333V100z M233.333,133.333h33.333v33.333h-33.333V133.333z M266.667,166.667H300V200h-33.333V166.667
				z M233.333,200h33.333v33.333h-33.333V200z M233.333,266.667h33.333V300h-33.333V266.667z M266.667,300H300v33.333h-33.333V300z
				 M233.333,333.333h33.333v33.334h-33.333V333.333z M266.667,366.667H300V400h-33.333V366.667z M233.333,400h33.333v33.333h-33.333
				V400z M266.667,433.333H300v33.334h-33.333V433.333z M233.333,466.667h33.333V500h-33.333V466.667z M266.667,500H300v33.333
				h-33.333V500z M500,266.667h33.334V300H500V266.667z M33.333,266.667h33.333V300H33.333V266.667z M66.667,233.333H100v33.333
				H66.667V233.333z M0,233.333h33.333v33.333H0V233.333z M133.333,233.333h33.333v33.333h-33.333V233.333z M166.667,266.667H200V300
				h-33.333V266.667z M200,233.333h33.333v33.333H200V233.333z M300,266.667h33.334V300H300V266.667z M333.333,233.333h33.333v33.333
				h-33.333V233.333z M366.667,266.667H400V300h-33.333V266.667z M400,233.333h33.334v33.333H400V233.333z M433.333,266.667h33.333
				V300h-33.333V266.667z M466.667,233.333H500v33.333h-33.333V233.333z M500,333.333h33.334v33.334H500V333.333z M300,333.333h33.334
				v33.334H300V333.333z M333.333,300h33.333v33.333h-33.333V300z M366.667,333.333H400v33.334h-33.333V333.333z M433.333,333.333
				h33.333v33.334h-33.333V333.333z M466.667,300H500v33.333h-33.333V300z M500,400h33.334v33.333H500V400z M300,400h33.334v33.333
				H300V400z M333.333,366.667h33.333V400h-33.333V366.667z M400,366.667h33.334V400H400V366.667z M433.333,400h33.333v33.333h-33.333
				V400z M466.667,366.667H500V400h-33.333V366.667z M500,466.667h33.334V500H500V466.667z M333.333,433.333h33.333v33.334h-33.333
				V433.333z M366.667,466.667H400V500h-33.333V466.667z M400,433.333h33.334v33.334H400V433.333z M433.333,466.667h33.333V500
				h-33.333V466.667z M333.333,500h33.333v33.333h-33.333V500z M400,500h33.334v33.333H400V500z M466.667,500H500v33.333h-33.333V500z
				"/>
		</g>
	</g>
</svg>
