<?xml version="1.0" encoding="UTF-8"?>
<svg xmlns="http://www.w3.org/2000/svg" version="1.1" viewBox="0 0 1000 940">
  <path d="m 985.99,949.83 c 5.31,-5.81 5.31,-14.15 0.25,-47.76 C 976.38,834.85 949.09,775.97 911.69,740.85 880.35,711.28 857.11,700.16 782.56,679.19 696.39,654.68 642.82,636.74 633.97,629.41 620.32,617.79 617.8,610.21 616.79,573.82 l -1.01,-33.35 12.13,-15.92 c 15.92,-20.72 26.03,-43.46 30.83,-69.74 2.28,-11.62 5.31,-20.97 6.82,-20.97 4.8,0 20.97,-18.45 27.29,-31.59 13.9,-28.05 19.71,-69.49 12.13,-88.45 -3.79,-9.6 -12.38,-18.7 -20.22,-21.73 -4.29,-1.77 -5.56,-3.79 -4.55,-8.09 0.76,-3.03 2.78,-20.47 4.55,-38.92 2.02,-25.27 2.02,-37.4 0,-50.29 C 672.89,127.04 621.59,71.7 552.6,52.24 531.88,46.43 488.16,43.65 469.21,47.19 388.35,61.85 328.46,119.21 315.32,194.77 c -2.02,12.63 -2.02,25.27 0,51.55 1.77,18.95 3.54,36.64 4.3,38.92 1.01,3.03 -0.51,5.31 -4.55,6.82 -5.56,2.02 -14.4,10.61 -18.19,17.18 -0.76,1.51 -2.78,8.84 -4.04,15.92 -5.31,28.3 7.58,74.55 27.04,96.03 6.32,7.08 12.64,12.64 14.4,12.64 1.77,0 4.55,8.59 7.08,20.97 4.8,26.28 14.91,49.02 30.83,69.74 l 12.13,15.92 -1.01,33.35 c -1.01,35.13 -3.28,42.71 -15.16,53.83 -3.28,3.03 -10.11,7.33 -15.16,9.35 -12.38,5.31 -105.38,33.86 -152.38,47 -43.21,12.13 -68.23,22.74 -90.97,38.91 -53.32,38.16 -88.7,108.41 -97.8,194.08 -2.8,25.02 -2.54,27.55 1.75,32.35" style="fill:none;stroke:#79a8a9;stroke-width:32" />
</svg>
