<svg xmlns="http://www.w3.org/2000/svg" preserveAspectRatio="xMidYMid" viewBox="0 0 53804.175 29333.646" height="1108.674" width="2033.544" version="1.2" fill-rule="evenodd" stroke-width="28.222" stroke-linejoin="round"><path d="M14445.868 26.458h24817v22861h-24817z" class="BoundingBox" fill="none"/><path d="M38677.868 23125.458c129-141 129-344 6-1161-240-1635-904-3067-1814-3921-762-719-1328-990-3141-1500-2097-596-3400-1032-3616-1210-332-283-393-467-418-1352l-24-811 295-387c387-504 633-1057 750-1696 56-283 129-510 166-510 117 0 510-449 664-769 338-682 479-1690 295-2151-92-233-301-454-492-528-104-43-135-92-111-197 19-74 68-498 111-946 49-615 49-910 0-1223-289-1647-1537-2993-3215-3467-504-141-1568-208-2029-122-1967 356-3424 1751-3744 3589-49 307-49 614 0 1253 43 461 86 891 104 947 25 73-12 129-110 166-136 49-351 258-443 417-18 37-67 215-98 388-129 688 184 1813 658 2335 154 172 307 307 350 307s111 209 172 510c117 639 363 1192 750 1696l296 388-25 811c-25 854-80 1038-369 1309-80 73-246 178-369 227-301 129-2564 824-3707 1143-1051 295-1660 553-2213 946-1297 928-2158 2637-2380 4720-68 609-61 670 43 787" fill="none" stroke="#79a8a9" stroke-width="779" stroke-linejoin="miter"/><path d="M3190.274 24541.358h241.308l-1313.788 4692.1h-777.548l-1313.788-4692.1h241.308l1246.758 4464.198h428.992zm1059.067 4692.1v-4692.1h241.308v4692.1zm1474.655 0v-4692.1h569.755l2232.1 4464.198h180.98v-4464.198h241.308v4692.1h-569.755L6139.582 24769.26h-174.278v4464.198zm7199.015-73.733q-670.3 134.06-1213.243 134.06-536.24 0-871.39-154.169-328.447-160.872-509.428-489.319t-248.011-737.33q-67.03-408.883-67.03-945.123t33.515-878.093q40.218-341.853 140.763-663.597 107.248-321.744 288.229-516.131 402.18-428.992 1206.54-428.992 589.864 0 1240.055 127.357l-20.109 234.605q-643.488-134.06-1119.401-134.06-469.21 0-730.627 107.248t-415.586 281.526q-147.466 167.575-234.605 469.21-80.436 294.932-107.248 596.567-26.812 301.635-26.812 744.033t26.812 744.033q26.812 301.635 113.951 589.864 87.139 288.229 241.308 455.804 341.853 368.665 1032.262 368.665 522.834 0 1219.946-134.06zm911.596 73.733v-4692.1h2741.527v227.902h-2500.219v1950.573h2098.039v227.902h-2098.039v2057.821h2500.219v227.902zm3700.044 0v-4692.1h569.755l2232.099 4464.198h180.981v-4464.198h241.308v4692.1h-569.755l-2238.802-4464.198h-174.278v4464.198zm3927.952-4464.198v-227.902h3351.5v227.902H23265.71v4464.198h-241.308V24769.26z" fill="#79a8a9"/><path d="M25062.107 24641.903h784.251l656.894 3948.067h140.763l871.39-3934.661h871.39l871.39 3934.661h147.466l656.894-3948.067h784.251l-904.905 4591.555h-1199.837l-790.954-3679.947-784.251 3679.947h-1206.54zm7272.75 3619.62q227.902 395.477 871.39 395.477t864.687-388.774q227.902-388.774 227.902-1300.382 0-918.311-234.605-1333.897-227.902-415.586-857.984-415.586-630.082 0-864.687 415.586-234.605 415.586-234.605 1327.194 0 904.905 227.902 1300.382zm2319.238 482.616q-408.883 563.052-1447.848 563.052t-1454.551-563.052q-415.586-569.755-415.586-1782.998t415.586-1803.107q422.289-589.864 1454.551-589.864t1447.848 589.864q415.586 583.161 415.586 1803.107t-415.586 1782.998zm2821.949 563.052q-1005.45 0-1367.412-556.349-355.259-556.349-355.259-1829.919 0-1273.57 361.962-1809.81 361.962-542.943 1360.709-542.943 596.567 0 1313.788 167.575l-26.812 603.27q-603.27-107.248-1206.54-107.248t-817.766 361.962q-214.496 355.259-214.496 1347.303 0 985.341 207.793 1347.303 207.793 355.259 811.063 355.259t1219.946-100.545l20.109 616.676q-690.409 147.466-1307.085 147.466zm4832.857-73.733V27249.37h-1984.088v1984.088h-744.033v-4591.555h744.033v1957.276h1984.088v-1957.276h750.736v4591.555zm1803.098 0v-4591.555h1300.382l1394.224 3934.661h100.545v-3934.661h744.033v4591.555h-1273.57l-1427.739-3941.364h-93.842v3941.364zm4598.25 0v-4591.555h744.033v4591.555zm2547.134 0h-744.033v-4591.555h744.033v2071.227l683.706-53.624 938.42-2017.603h851.281l-1132.807 2305.832 1179.728 2285.723h-864.687l-971.935-1917.058-683.706 46.921z" font-family="Titillium Web SemiBold" fill="#79a8a9"/></svg>