<?xml version="1.0" encoding="utf-8"?>
<svg version="1.1" xmlns="http://www.w3.org/2000/svg" xmlns:xlink="http://www.w3.org/1999/xlink" x="0px" y="0px"
	   width="76px" height="76px" viewBox="-4 -4 84 84">
	<defs>
		<mask id="letter">
			<rect x="0" y="0" width="76" height="76" fill="#fff"/>
			<path fill="#000" d="M48.021,46.811c0,2.617-2.107,4.637-4.634,4.637H32.597c-2.522,0-4.543-2.02-4.543-4.637V27.428
				c0-2.527,2.021-4.634,4.629-4.634h10.703c2.527,0,4.634,2.107,4.634,4.634V46.811z M54.253,47.648V26.416
				c0-5.141-4.465-9.274-9.69-9.274H31.506c-5.226,0-9.693,4.133-9.693,9.274v21.232c0,5.148,4.127,9.445,9.359,9.445h13.73
				C50.041,57.094,54.253,52.797,54.253,47.648"/>
		</mask>
	</defs>
	<circle fill="#009FEE" mask="url(#letter)" cx="38.033" cy="37.877" r="37.757"/>
</svg>
