<?xml version="1.0" encoding="iso-8859-1"?>
<!-- Generator: Adobe Illustrator 16.0.0, SVG Export Plug-In . SVG Version: 6.00 Build 0)  -->
<!DOCTYPE svg PUBLIC "-//W3C//DTD SVG 1.1//EN" "http://www.w3.org/Graphics/SVG/1.1/DTD/svg11.dtd">
<svg version="1.1" id="Capa_1" xmlns="http://www.w3.org/2000/svg" xmlns:xlink="http://www.w3.org/1999/xlink" x="0px" y="0px"
	 width="533.333px" height="533.333px" viewBox="0 0 533.333 533.333" style="enable-background:new 0 0 533.333 533.333;"
	 xml:space="preserve">
 <defs>
	<g id="pointer" transform="translate(102.9335,102.9335) scale(0.5)">
		<g fill="none" stroke-linejoin="round" stroke-linecap="round" transform="translate(-27.818,-44.858)">
			<path  d="m254.87738,764.910767c2.550537,-73.662659 -43.230072,-144.975342 -62.12738,-176.174194c-35.677597,-58.902649 -94.85041,-119.214233 -137.5,-175.000031c-9.595963,-12.551544 -14.786087,-49.15097 3.75,-68.75c18.608757,-19.675873 47.525604,-18.970886 65,-8.75c48.775604,28.529114 65.847412,50.928284 100,97.5c11.680725,15.928284 34.943604,62.726074 35,98.750031l0,-408.750015c0,-36.528702 34.400879,-62.203758 70,-60.000008c35.599121,2.203766 64.768616,33.137794 65,61.250008l2.5,303.749985c-1.09964,-71.731842 6.28598,-115.568268 39.267761,-115.669434c32.967224,-0.101074 46.789001,48.063202 48.232239,118.169434c-1.443237,-73.022888 9.455994,-93.690338 43.964478,-94.267761c34.508484,-0.577454 44.015503,46.856689 44.785522,139.267761c0.063354,-72.827728 17.524475,-104.225189 33.75,-105c16.225525,-0.774811 56.873474,32.177277 57.13385,106.605347l0.36615,104.644684c0.112,32.014343 -46.568054,56.550354 -46.843567,88.598328l-0.808105,93.977478"/>
		</g>
	</g>
 </defs>
 <mask id="pointerMask">
	 <rect fill="#fff" x="0" y="0" width="533.333" height="533.333"/>
	 <use xlink:href="#pointer" stroke="#000" stroke-width="120"/>
</mask>
<g fill="#00c0ff" mask="url(#pointerMask)">
	<path d="M166.667,33.333H33.333v133.333h133.333V33.333z M200,0L200,0v200H0V0H200z M66.667,66.667h66.667v66.667H66.667V66.667z
		 M500,33.333H366.667v133.333H500V33.333z M533.333,0L533.333,0v200h-200V0H533.333z M400,66.667h66.667v66.667H400V66.667z
		 M166.667,366.667H33.333V500h133.333V366.667z M200,333.333L200,333.333v200H0v-200H200z M66.667,400h66.667v66.667H66.667V400z
		 M233.333,0h33.333v33.333h-33.333V0z M266.667,33.333H300v33.333h-33.333V33.333z M233.333,66.667h33.333V100h-33.333V66.667z
		 M266.667,100H300v33.333h-33.333V100z M233.333,133.333h33.333v33.333h-33.333V133.333z M266.667,166.667H300V200h-33.333V166.667
		z M233.333,200h33.333v33.333h-33.333V200z M233.333,266.667h33.333V300h-33.333V266.667z M266.667,300H300v33.333h-33.333V300z
		 M233.333,333.333h33.333v33.334h-33.333V333.333z M266.667,366.667H300V400h-33.333V366.667z M233.333,400h33.333v33.333h-33.333
		V400z M266.667,433.333H300v33.334h-33.333V433.333z M233.333,466.667h33.333V500h-33.333V466.667z M266.667,500H300v33.333
		h-33.333V500z M500,266.667h33.334V300H500V266.667z M33.333,266.667h33.333V300H33.333V266.667z M66.667,233.333H100v33.333
		H66.667V233.333z M0,233.333h33.333v33.333H0V233.333z M133.333,233.333h33.333v33.333h-33.333V233.333z M166.667,266.667H200V300
		h-33.333V266.667z M200,233.333h33.333v33.333H200V233.333z M300,266.667h33.334V300H300V266.667z M333.333,233.333h33.333v33.333
		h-33.333V233.333z M366.667,266.667H400V300h-33.333V266.667z M400,233.333h33.334v33.333H400V233.333z M433.333,266.667h33.333
		V300h-33.333V266.667z M466.667,233.333H500v33.333h-33.333V233.333z M500,333.333h33.334v33.334H500V333.333z M300,333.333h33.334
		v33.334H300V333.333z M333.333,300h33.333v33.333h-33.333V300z M366.667,333.333H400v33.334h-33.333V333.333z M433.333,333.333
		h33.333v33.334h-33.333V333.333z M466.667,300H500v33.333h-33.333V300z M500,400h33.334v33.333H500V400z M300,400h33.334v33.333
		H300V400z M333.333,366.667h33.333V400h-33.333V366.667z M400,366.667h33.334V400H400V366.667z M433.333,400h33.333v33.333h-33.333
		V400z M466.667,366.667H500V400h-33.333V366.667z M500,466.667h33.334V500H500V466.667z M333.333,433.333h33.333v33.334h-33.333
		V433.333z M366.667,466.667H400V500h-33.333V466.667z M400,433.333h33.334v33.334H400V433.333z M433.333,466.667h33.333V500
		h-33.333V466.667z M333.333,500h33.333v33.333h-33.333V500z M400,500h33.334v33.333H400V500z M466.667,500H500v33.333h-33.333V500z
		"/>
</g>
 <use xlink:href="#pointer" stroke="#00c0ff" stroke-width="40"/>
</svg>
