<svg width="256" height="256" version="1.1" xmlns="http://www.w3.org/2000/svg"><path d="M7.83773951454306e-15,-128A128,128,0,1,1,-7.83773951454306e-15,128A128,128,0,1,1,7.83773951454306e-15,-128M-1.9986235762084803e-14,-108.8A108.8,108.8,0,1,0,1.9986235762084803e-14,108.8A108.8,108.8,0,1,0,-1.9986235762084803e-14,-108.8Z" transform="translate(128,128)" fill="rgba(121,168,169,0.2)"></path><path d="M7.83773951454306e-15,-128A128,128,0,1,1,-7.83773951454306e-15,128A128,128,0,1,1,7.83773951454306e-15,-128M-1.9986235762084803e-14,-108.8A108.8,108.8,0,1,0,1.9986235762084803e-14,108.8A108.8,108.8,0,1,0,-1.9986235762084803e-14,-108.8Z" transform="translate(128,128)" fill="#79a8a9"></path><text transform="translate(128,128)" font-family="sans-serif" font-size="50" font-weight="bold" text-anchor="middle" dy=".35em" fill="#79a8a9">HTML5</text></svg>