<?xml version="1.0" encoding="utf-8"?>
<svg xmlns="http://www.w3.org/2000/svg" version="1.1" viewBox="0 0 64 64" preserveAspectRatio="xMidYMid meet">
  <mask id="iconMask">
    <rect fill="#fff" x="0" y="0" width="64" height="64"/>
    <g fill="#000" transform="translate(-23,-14) scale(1.375)">
      <path d="M2.817,38.095c0.189,0.149,0.419,0.277,0.668,0.422c0.245,0.154,0.521,0.3,0.828,0.434c0.3,0.152,0.628,0.29,0.984,0.412
          c0.35,0.142,0.73,0.254,1.13,0.361c0.798,0.229,1.688,0.372,2.638,0.473c0.951,0.072,1.966,0.093,3.01-0.005
          c0.522-0.049,1.055-0.099,1.586-0.207c0.537-0.08,1.071-0.205,1.607-0.347c1.076-0.269,2.132-0.657,3.205-1.122
          c0.993-0.468,1.996-0.978,2.832-1.337c0.452-0.134,0.893-0.282,1.334-0.382c0.453-0.042,0.881-0.178,1.32-0.153
          c0.435-0.011,0.858-0.022,1.273,0.048c0.363,0.021,0.714,0.103,1.056,0.184l-1.196-3.079c-0.472,0.006-0.948,0.057-1.43,0.128
          c-0.577,0.048-1.132,0.27-1.703,0.407c-0.554,0.194-1.094,0.443-1.632,0.683c-1.057,0.604-1.914,1.189-2.817,1.746
          c-0.858,0.492-1.786,0.968-2.739,1.326c-0.474,0.188-0.95,0.36-1.434,0.489c-0.478,0.157-0.961,0.259-1.439,0.361
          c-0.956,0.204-1.901,0.294-2.802,0.331c-0.899,0.008-1.759-0.028-2.539-0.158c-0.392-0.057-0.768-0.121-1.116-0.218
          c-0.355-0.076-0.685-0.173-0.989-0.285c-0.311-0.095-0.594-0.204-0.847-0.326c-0.258-0.113-0.498-0.212-0.697-0.335
          c-0.416-0.217-0.726-0.419-0.925-0.575c-0.207-0.146-0.317-0.224-0.317-0.224s0.1,0.09,0.289,0.259
          C2.136,37.588,2.422,37.827,2.817,38.095z"/>
      <path d="M3.485,44.518c0.245,0.154,0.521,0.3,0.828,0.434c0.3,0.152,0.628,0.29,0.984,0.412c0.35,0.142,0.73,0.254,1.13,0.361
          c0.798,0.229,1.688,0.372,2.638,0.473c0.951,0.072,1.966,0.093,3.01-0.005c0.522-0.049,1.055-0.099,1.586-0.207
          c0.537-0.08,1.071-0.205,1.607-0.347c1.076-0.269,2.132-0.657,3.205-1.122c0.993-0.468,1.996-0.978,2.832-1.337
          c0.452-0.134,0.893-0.282,1.334-0.382c0.453-0.042,0.881-0.178,1.32-0.153c0.435-0.011,0.858-0.022,1.273,0.048
          c0.414,0.024,0.814,0.125,1.201,0.217c0.774,0.189,1.481,0.485,2.116,0.795c0.177,0.091,0.334,0.186,0.5,0.28l-1.553-3.999
          c-0.171-0.029-0.329-0.075-0.506-0.097c-0.528-0.063-1.066-0.125-1.629-0.099c-0.558-0.021-1.126,0.053-1.698,0.138
          c-0.577,0.048-1.132,0.27-1.703,0.407c-0.554,0.194-1.094,0.443-1.632,0.683c-1.057,0.604-1.914,1.189-2.817,1.746
          c-0.858,0.492-1.786,0.968-2.739,1.326c-0.474,0.188-0.95,0.36-1.434,0.489c-0.478,0.157-0.961,0.259-1.439,0.361
          c-0.956,0.204-1.901,0.294-2.802,0.331c-0.899,0.008-1.759-0.028-2.539-0.158c-0.392-0.057-0.768-0.121-1.116-0.218
          c-0.355-0.076-0.685-0.173-0.989-0.285c-0.311-0.095-0.594-0.204-0.847-0.326c-0.258-0.113-0.498-0.212-0.697-0.335
          c-0.416-0.217-0.726-0.419-0.925-0.575c-0.207-0.146-0.317-0.224-0.317-0.224s0.1,0.09,0.289,0.259
          c0.182,0.179,0.468,0.418,0.863,0.686C3.005,44.244,3.236,44.372,3.485,44.518z"/>
      <polygon points="33.33,47.117 35.29,43.858 39.763,36.42 25.898,32.306 25.627,32.412 26.167,33.804 27.506,37.249 28.662,40.227
          30.483,44.915 31.987,48.786 32.431,48.614"/>
      <polygon points="55.995,20.615 48.305,33.102 62.18,37.058 62.654,36.874 56.294,20.5"/>
      <polygon points="60.636,37.657 47.761,33.986 45.258,38.05 40.753,36.714 35.782,44.981 34.56,47.013 33.953,48.022 33.833,48.222
          60.864,37.722"/>
      <path d="M2.817,31.095c0.189,0.149,0.419,0.277,0.668,0.422c0.245,0.154,0.521,0.3,0.828,0.434c0.3,0.152,0.628,0.29,0.984,0.412
          c0.35,0.142,0.73,0.254,1.13,0.361c0.798,0.229,1.688,0.372,2.638,0.473c0.951,0.072,1.966,0.093,3.01-0.005
          c0.522-0.049,1.055-0.099,1.586-0.207c0.537-0.08,1.071-0.205,1.607-0.347c1.076-0.269,2.132-0.657,3.205-1.122
          c0.993-0.468,1.996-0.978,2.832-1.337c0.452-0.134,0.893-0.282,1.334-0.382c0.453-0.042,0.881-0.178,1.32-0.153
          c0.435-0.011,0.858-0.022,1.273,0.048c0.414,0.024,0.814,0.125,1.201,0.217c0.542,0.132,1.038,0.324,1.513,0.529l4.375-1.7
          c-0.693-0.39-1.502-0.79-2.458-1.144c-0.86-0.303-1.82-0.576-2.874-0.707c-0.528-0.063-1.066-0.125-1.629-0.099
          c-0.558-0.021-1.126,0.053-1.698,0.138c-0.577,0.048-1.132,0.27-1.703,0.407c-0.554,0.194-1.094,0.443-1.632,0.683
          c-1.057,0.604-1.914,1.189-2.817,1.746c-0.858,0.492-1.786,0.968-2.739,1.326c-0.474,0.188-0.95,0.36-1.434,0.489
          c-0.478,0.157-0.961,0.259-1.439,0.361c-0.956,0.204-1.901,0.294-2.802,0.331c-0.899,0.008-1.759-0.028-2.539-0.158
          c-0.392-0.057-0.768-0.121-1.116-0.218c-0.355-0.076-0.685-0.173-0.989-0.285c-0.311-0.095-0.594-0.204-0.847-0.326
          c-0.258-0.113-0.498-0.212-0.697-0.335c-0.416-0.217-0.726-0.419-0.925-0.575c-0.207-0.146-0.317-0.224-0.317-0.224
          s0.1,0.09,0.289,0.259C2.136,30.588,2.422,30.827,2.817,31.095z"/>
      <polygon points="52.683,21.902 33.397,29.393 29.153,31.042 27.421,31.715 31.804,33.016 34.79,33.901 40.295,35.535 40.79,35.682
          41.285,35.828 44.808,36.873 46.762,33.701 47.034,33.259 47.306,32.817 54.451,21.215"/>
    </g>
  </mask>
  <g fill="#79a8a9" mask="url(#iconMask)">
    <circle cx="32" cy="32" r="32"/>
  </g>
</svg>
