<?xml version="1.0" encoding="utf-8"?>
<svg xmlns="http://www.w3.org/2000/svg" version="1.1" viewBox="0 0 64 64" preserveAspectRatio="xMidYMid meet">
  <mask id="iconMask">
    <rect fill="#fff" x="0" y="0" width="64" height="64"/>
    <g fill="#000" transform="translate(8,8) scale(0.048)">
      <g transform="translate(134.5,0)">
        <path d="M158.75 865l-156.25 0l0 -521.25l156.25 0l0 521.25zm393.75 -505q87.5 0 133.125 56.25t45.625 153.75l0 295l-156.25 0l0 -278.75q0 -108.75 -76.25 -108.75 -61.25 0 -80 61.25l0 326.25l-156.25 0q2.5 -468.75 0 -521.25l123.75 0l10 103.75l2.5 0q53.75 -87.5 153.75 -87.5zm-552.5 -146.25q0 -78.75 81.25 -78.75 80 0 80 78.75 0 77.5 -80 77.5 -81.25 0 -81.25 -77.5z"/>
      </g>
    </g>
  </mask>
  <g fill="#00c0ff" mask="url(#iconMask)">
    <circle cx="32" cy="32" r="32"/>
  </g>
</svg>
