<?xml version="1.0" encoding="utf-8"?>
<!-- Generator: Adobe Illustrator 16.0.4, SVG Export Plug-In . SVG Version: 6.00 Build 0)  -->
<!DOCTYPE svg PUBLIC "-//W3C//DTD SVG 1.1//EN" "http://www.w3.org/Graphics/SVG/1.1/DTD/svg11.dtd">
<svg version="1.1" id="Layer_1" xmlns="http://www.w3.org/2000/svg" xmlns:xlink="http://www.w3.org/1999/xlink" viewBox="18.8202 27.08465 52.8916 36.3627">
<g fill="#00c0ff">
	<path d="M40.666,47.774c0,0,0.126-1.514-0.287-2.157c-0.458-0.71-1.995-1.159-3.516-1.789
		c-1.521-0.636-1.882-0.858-1.882-0.858l-0.013-1.456c0,0,0.568-0.442,0.746-1.814c0.355,0.103,0.732-0.533,0.752-0.869
		c0.019-0.323-0.052-1.211-0.485-1.124c0.087-0.678,0.155-1.278,0.119-1.604c-0.113-1.172-1.269-2.408-3.044-2.408
		c-1.776,0-2.931,1.236-3.041,2.408c-0.033,0.327,0.032,0.927,0.119,1.604c-0.433-0.087-0.504,0.801-0.485,1.124
		c0.023,0.336,0.397,0.972,0.752,0.869c0.174,1.372,0.749,1.814,0.749,1.814l-0.016,1.456c0,0-0.358,0.223-1.882,0.858
		c-1.523,0.63-3.06,1.079-3.519,1.789c-0.41,0.643-0.284,2.157-0.284,2.157H40.666z"/>
	<rect x="45.266" y="33.696" width="13.223" height="3.306"/>
	<rect x="45.266" y="40.308" width="19.835" height="3.306"/>
	<rect x="45.266" y="46.918" width="16.529" height="3.306"/>
	<path d="M18.82,27.084v36.363h52.892V27.084H18.82z M68.407,60.142h-6.915c0.184-0.52,0.303-1.072,0.303-1.653
		c0-2.741-2.221-4.958-4.958-4.958s-4.958,2.218-4.958,4.958c0,0.581,0.12,1.133,0.303,1.653h-13.83
		c0.184-0.52,0.303-1.072,0.303-1.653c0-2.741-2.221-4.958-4.958-4.958c-2.738,0-4.958,2.218-4.958,4.958
		c0,0.581,0.119,1.133,0.303,1.653h-6.916V30.39h46.281V60.142z"/>
</g>
</svg>
